<svg id="Layer_1" data-name="Layer 1" xmlns="http://www.w3.org/2000/svg" viewBox="0 0 584.76 73.04"><defs><style>.cls-1{fill:#fff27b;stroke:#323232;stroke-miterlimit:10;stroke-width:0.5px;}</style></defs><path class="cls-1" d="M71.89,25.56l-2.65-5.35H.84L.29,21,3,26.3H6.11a8.38,8.38,0,0,0-.39,2.19c0,3.71,1.88,6.14,6.37,9.49a7.75,7.75,0,0,0-.94,3.6A9.86,9.86,0,0,0,14,48c3.56,4.06,7.07,5.66,10.63,5.66a13.06,13.06,0,0,0,6.17-1.68l-.16,7.62,6.21,1.79L37.4,61,37.24,26.3H56a11.72,11.72,0,0,1,.32,3c0,2.89-.59,4.65-1.45,5.78-1.21-.11-3-.15-4.84-.15a4,4,0,0,0-3.67,1.64,4.18,4.18,0,0,0-.67,2.19,10.22,10.22,0,0,0,1.49,4c3.71,6.88,10,13.16,17.93,19.1h.58l3-6.64c-6-2.89-11.17-6.05-14.41-9.57,5-2.77,8.51-6.72,8.51-14.53a25.6,25.6,0,0,0-.43-4.81h9ZM30.76,39.78c0,3-1.52,5.08-4.41,6.45a12.28,12.28,0,0,1-5,1.29c-2.35,0-3.91-.63-3.91-2.66,0-2.81,2.62-5.12,8.79-6.8l.23-.35L22,31.93a31.85,31.85,0,0,0-7,3,3.37,3.37,0,0,1-2.73-3.32c0-2.19,1.48-5.28,7.26-5.28H30.76Z"/><path class="cls-1" d="M108.34,32.05a28.88,28.88,0,0,0-8.87-1.53c-6.09,0-10.66,3.68-10.66,9.38,0,2.81,1.48,5.62,3.51,8,2.78,2.85,5.43,4.88,9.57,4.88a10.28,10.28,0,0,0,6.41-2l.08,0-.2,8.79,6.06,1.79.54-.39-.07-15.54c3.16-3.68,6.6-6.21,9.41-6.21,1.37,0,1.95.66,1.95,2.1,0,3-2.5,7.35-5.86,11.53L126,57.32h.55c3-3.91,4.88-8.44,4.88-12.38a11.62,11.62,0,0,0-3.28-8.09A9.2,9.2,0,0,0,121,33.49a11,11,0,0,0-6.25,2.27l-.11-.08V26.3h20l.54-.74-2.65-5.35H113.31C107,6.62,104.12.45,96.23.45a30.34,30.34,0,0,0-8.09,1.09l3,7.34h.16a27.39,27.39,0,0,1,7.58-1.09c5.67,0,7.46,4.69,10.3,12.42H84.74L84.2,21l2.65,5.35h21.49Zm.08,10.11c-3,3.13-6.14,4.61-9.14,4.61-2.62,0-4.18-1-4.18-3.12,0-3.83,3-7.15,9.53-7.15a19.32,19.32,0,0,1,3.79.35Z"/><path class="cls-1" d="M170.06,57.4c6,0,10.31-4.1,10.31-9.45a13.4,13.4,0,0,0-.31-2.86l.31-.11a11.59,11.59,0,0,0,5.86,1.64,7.43,7.43,0,0,0,1.33-.08l-.12,13,6.25,1.79.55-.39-.16-34.65h10.2l-.16,33.21,6.29,1.83L211,61,210.8,26.3h14.8a27.09,27.09,0,0,1,.51,5.43,19.57,19.57,0,0,1-.58,5.16,31,31,0,0,0-3.29-.23,3.82,3.82,0,0,0-4,4.1c0,1.56.9,3.9,2.89,6.91,3.83,5.82,9.45,11.13,16,16.1h.58l2.93-6.53c-6-2.85-10.7-5.82-13.79-9a20.46,20.46,0,0,0,4.42-4.06,22.25,22.25,0,0,0,9.14,2.1,44.88,44.88,0,0,0,5.23-.27l-.19,13.52,6.21,1.79.55-.39-.16-34.65h6.8l.54-.74-2.65-5.35H179.43l-.54.74,2.65,5.35h6.1V38.57a12.58,12.58,0,0,1-6.29,1.84c-1.64,0-3.28-.12-3.95-.82a13,13,0,0,0-1.72-1.88,8.66,8.66,0,0,0,2-5.23,11.55,11.55,0,0,0-2.54-7.07c-2.85-4-5.58-5.82-10.15-5.82a15.54,15.54,0,0,0-9,3.28l-.15.54,4,6c3.56-2.15,6.56-3.32,9.06-3.32,3,0,3.56,1.33,3.56,2.69,0,1.84-1.37,3.44-3.95,4.46a55.45,55.45,0,0,0-8.39,2.26l-.24.75,3.95,6.13a21.27,21.27,0,0,1,7.26-1.84c2.7,0,3.87,1.29,3.87,3.32,0,3.83-4,6.33-7.38,6.33-6.53,0-9.85-4.73-14.42-13l-2.85,2-.08.35C155.84,50.64,162.13,57.4,170.06,57.4ZM245.6,26.3V38.73a28.93,28.93,0,0,1-7,.74,33.65,33.65,0,0,1-6.29-.63,30.76,30.76,0,0,0,.2-4,45.26,45.26,0,0,0-.82-8.52Z"/><path class="cls-1" d="M325.25,20.21h-53l-.54.74,2.65,5.35H278c-.08,2.11-.12,4.46-.12,7,0,8.36,1.87,11.29,6.56,14.65a13.33,13.33,0,0,0,7.62,2.73,10.23,10.23,0,0,0,5.35-1.56l-.16,10.47,6.22,1.79L304,61l-.15-34.65H314l-.15,33.21,6.28,1.83.55-.39-.15-34.65h14.8a27.85,27.85,0,0,1,.51,5.43,19.54,19.54,0,0,1-.59,5.16,30.84,30.84,0,0,0-3.28-.23,3.81,3.81,0,0,0-4,4.1c0,1.56.89,3.9,2.89,6.91,3.82,5.82,9.45,11.13,16,16.1h.59l2.93-6.53c-6-2.85-10.7-5.82-13.79-9A20.42,20.42,0,0,0,341,44.2a22.32,22.32,0,0,0,9.14,2.1,45.05,45.05,0,0,0,5.24-.27l-.2,13.52,6.21,1.79L362,61l-.15-34.65h6.79l.55-.74-2.66-5.35ZM297.48,37a6.37,6.37,0,0,1-2.42,5.19,10,10,0,0,1-6.06,2.5c-4.06,0-4.29-4-4.29-11,0-2.77,0-5.27.11-7.31h12.66Zm57.89,1.76a29,29,0,0,1-7,.74,33.48,33.48,0,0,1-6.29-.63,32.75,32.75,0,0,0,.19-4,44.44,44.44,0,0,0-.82-8.52h13.91Z"/><path class="cls-1" d="M441.58,20.21c-2.11-6.52-5.86-11.83-10.82-15.12A25.61,25.61,0,0,0,416.19.25c-8.83,0-13.4,4.61-13.4,10.23a11.46,11.46,0,0,0,1.84,6.1l5.74,2.58.59-.86a8.35,8.35,0,0,1-1.33-4.5c0-4.68,4.26-7.81,10.9-7.81,8.43,0,13.24,5.43,14.72,14.22H382l-.55.74,2.66,5.35H405.6v5.75a28.78,28.78,0,0,0-8.86-1.53c-6.1,0-10.67,3.68-10.67,9.38,0,2.81,1.49,5.62,3.52,8,2.77,2.85,5.43,4.88,9.57,4.88a10.31,10.31,0,0,0,6.41-2l.07,0-.19,8.79,6.05,1.79.55-.39L412,45.41c3.17-3.68,6.6-6.21,9.42-6.21,1.36,0,1.95.66,1.95,2.1,0,3-2.5,7.35-5.86,11.53l5.82,4.49h.55c3-3.91,4.88-8.44,4.88-12.38a11.67,11.67,0,0,0-3.28-8.09,9.22,9.22,0,0,0-7.19-3.36A11,11,0,0,0,412,35.76l-.12-.08V26.3h23.44l-.16,33.21,6.29,1.83L442,61l-.16-34.65h6.8l.55-.74-2.66-5.35Zm-35.9,21.95c-3,3.13-6.13,4.61-9.14,4.61-2.62,0-4.18-1-4.18-3.12,0-3.83,3-7.15,9.53-7.15a19.24,19.24,0,0,1,3.79.35Z"/><path class="cls-1" d="M584.47,25.56l-2.65-5.35H462.05l-.55.74,2.66,5.35h34.06v5.63H478.89l-.55.66,2.46,5.59c4.69.62,6.87,1.91,6.87,4.14a6.2,6.2,0,0,1-6.25,5.86c-5,0-9.45-4.77-13.59-15.23l-3.59,1.79c5.82,14.46,12.38,20.78,19.57,20.78,5.9,0,9.18-4.29,9.18-8.36,0-2.77-.78-5-2.85-8.59h8.08l-.15,21,6.21,1.79.54-.39-.15-34.65h14.25a50.15,50.15,0,0,1,.4,6.49,37.85,37.85,0,0,1-.28,5.27c-3.2.39-5.23.86-6.09,1.88a3.43,3.43,0,0,0-.82,2.3c0,1.6,1.21,3.48,3,5.39,2,2.15,3.67,3.25,4.92,3.25a4.16,4.16,0,0,0,3.51-2.15c1.41-2.46,2.07-6,2.07-12.15,0-2.85-.11-6.25-.46-10.28h11.4l-.15,33.21,6.28,1.83.55-.39-.15-34.65h27.46v4.42a103.9,103.9,0,0,0-11.1.35c-5.35.55-8.08,4.1-8.08,7.66,0,3.28,1.79,6.21,4.84,9.41a10,10,0,0,0-1.48,5.16c0,9.41,10.39,16.17,23.86,19.49l.32,0,2.93-6.33c-12.93-1.13-20.83-4.14-20.83-10,0-5.7,7.27-8.9,12-8.9,2.54,0,3.36.74,3.36,1.36,0,1.84-2.82,4-8,6.53L573.65,61c4.81-2.18,7.19-4.92,7.19-8.59a13.29,13.29,0,0,0-1.72-6c-1.88-3.51-4.84-5.39-9.3-5.39a17.25,17.25,0,0,0-11.13,4.1,4.48,4.48,0,0,1-1-3.12c0-2.27,2.35-4.18,5.94-4.73a40.41,40.41,0,0,1,5.9-.35c2.38,0,4.41,0,6.8.12l.7-.78,0-9.93h6.95Z"/></svg>